<svg id="visual" viewBox="0 0 900 600" width="900" height="600" xmlns="http://www.w3.org/2000/svg" xmlns:xlink="http://www.w3.org/1999/xlink" version="1.1"><rect x="0" y="0" width="900" height="600" fill="#FFFFFF"></rect><defs><linearGradient id="grad1_0" x1="33.3%" y1="0%" x2="100%" y2="100%"><stop offset="20%" stop-color="#ffffff" stop-opacity="1"></stop><stop offset="80%" stop-color="#ffffff" stop-opacity="1"></stop></linearGradient></defs><defs><linearGradient id="grad2_0" x1="0%" y1="0%" x2="66.7%" y2="100%"><stop offset="20%" stop-color="#ffffff" stop-opacity="1"></stop><stop offset="80%" stop-color="#ffffff" stop-opacity="1"></stop></linearGradient></defs><g transform="translate(900, 0)"><path d="M0 243.4C-30.1 215.8 -60.2 188.3 -99 171.5C-137.8 154.6 -185.3 148.5 -210.8 121.7C-236.3 94.9 -239.8 47.4 -243.4 0L0 0Z" fill="#0C6DFD"></path></g><g transform="translate(0, 600)"><path d="M0 -243.4C46.3 -239.2 92.6 -234.9 121.7 -210.8C150.8 -186.6 162.7 -142.5 180.1 -104C197.6 -65.5 220.5 -32.8 243.4 0L0 0Z" fill="#0C6DFD"></path></g></svg>