<svg id="visual" viewBox="0 0 900 600" width="900" height="600" xmlns="http://www.w3.org/2000/svg" xmlns:xlink="http://www.w3.org/1999/xlink" version="1.1"><rect x="0" y="0" width="900" height="600" fill="#FFFFFF"></rect><defs><linearGradient id="grad1_0" x1="33.3%" y1="0%" x2="100%" y2="100%"><stop offset="20%" stop-color="#ffffff" stop-opacity="1"></stop><stop offset="80%" stop-color="#ffffff" stop-opacity="1"></stop></linearGradient></defs><defs><linearGradient id="grad2_0" x1="0%" y1="0%" x2="66.7%" y2="100%"><stop offset="20%" stop-color="#ffffff" stop-opacity="1"></stop><stop offset="80%" stop-color="#ffffff" stop-opacity="1"></stop></linearGradient></defs><g transform="translate(900, 0)"><path d="M0 351.5C-65.9 344.9 -131.8 338.2 -175.8 304.4C-219.8 270.7 -241.9 209.8 -267.6 154.5C-293.3 99.2 -322.4 49.6 -351.5 0L0 0Z" fill="#0C6DFD"></path></g><g transform="translate(0, 600)"><path d="M0 -351.5C48 -319.6 96 -287.7 151.5 -262.4C207 -237.1 269.9 -218.4 304.4 -175.8C339 -133.1 345.3 -66.6 351.5 0L0 0Z" fill="#0C6DFD"></path></g></svg>