<svg id="visual" viewBox="0 0 900 600" width="900" height="600" xmlns="http://www.w3.org/2000/svg" xmlns:xlink="http://www.w3.org/1999/xlink" version="1.1"><rect x="0" y="0" width="900" height="600" fill="#FFFFFF"></rect><path d="M0 453L129 508L257 470L386 482L514 472L643 487L771 492L900 474L900 601L771 601L643 601L514 601L386 601L257 601L129 601L0 601Z" fill="#0066ff"></path><path d="M0 499L129 527L257 501L386 524L514 525L643 505L771 476L900 514L900 601L771 601L643 601L514 601L386 601L257 601L129 601L0 601Z" fill="#2059ff"></path><path d="M0 539L129 520L257 509L386 513L514 526L643 502L771 543L900 544L900 601L771 601L643 601L514 601L386 601L257 601L129 601L0 601Z" fill="#3849ff"></path><path d="M0 551L129 554L257 542L386 536L514 535L643 528L771 558L900 550L900 601L771 601L643 601L514 601L386 601L257 601L129 601L0 601Z" fill="#4f34ff"></path><path d="M0 573L129 571L257 556L386 584L514 581L643 572L771 575L900 566L900 601L771 601L643 601L514 601L386 601L257 601L129 601L0 601Z" fill="#6600ff"></path></svg>