<svg id="visual" viewBox="0 0 960 540" width="960" height="540" xmlns="http://www.w3.org/2000/svg" xmlns:xlink="http://www.w3.org/1999/xlink" version="1.1"><rect x="0" y="0" width="960" height="540" fill="#FFFFFF"></rect><path d="M0 446L22.8 450.7C45.7 455.3 91.3 464.7 137 464C182.7 463.3 228.3 452.7 274 447.5C319.7 442.3 365.3 442.7 411.2 436.5C457 430.3 503 417.7 548.8 412C594.7 406.3 640.3 407.7 686 415C731.7 422.3 777.3 435.7 823 430.5C868.7 425.3 914.3 401.7 937.2 389.8L960 378L960 541L937.2 541C914.3 541 868.7 541 823 541C777.3 541 731.7 541 686 541C640.3 541 594.7 541 548.8 541C503 541 457 541 411.2 541C365.3 541 319.7 541 274 541C228.3 541 182.7 541 137 541C91.3 541 45.7 541 22.8 541L0 541Z" fill="#0C6DFD" stroke-linecap="round" stroke-linejoin="miter"></path></svg>