<svg id="visual" viewBox="0 0 960 540" width="960" height="540" xmlns="http://www.w3.org/2000/svg" xmlns:xlink="http://www.w3.org/1999/xlink" version="1.1"><rect x="0" y="0" width="960" height="540" fill="#FFFFFF"></rect><path d="M0 369L137 359L274 399L411 373L549 393L686 366L823 398L960 383L960 541L823 541L686 541L549 541L411 541L274 541L137 541L0 541Z" fill="#6a9bff"></path><path d="M0 391L137 426L274 433L411 411L549 411L686 401L823 388L960 405L960 541L823 541L686 541L549 541L411 541L274 541L137 541L0 541Z" fill="#4684ff"></path><path d="M0 461L137 452L274 439L411 432L549 430L686 454L823 439L960 427L960 541L823 541L686 541L549 541L411 541L274 541L137 541L0 541Z" fill="#0c6dfd"></path><path d="M0 457L137 455L274 471L411 478L549 474L686 486L823 457L960 482L960 541L823 541L686 541L549 541L411 541L274 541L137 541L0 541Z" fill="#035edc"></path><path d="M0 492L137 502L274 520L411 504L549 493L686 489L823 499L960 518L960 541L823 541L686 541L549 541L411 541L274 541L137 541L0 541Z" fill="#0050bb"></path></svg>